<svg width="374" height="275" viewBox="0 0 374 275" fill="none" xmlns="http://www.w3.org/2000/svg">
<path fill-rule="evenodd" clip-rule="evenodd" d="M145.046 29.2063C188.602 6.06398 235.493 1.2687 273.839 10.2338C361.159 30.8742 368.036 96.5485 321.563 164.308C300.306 195.373 268.837 225.187 230.908 243.951C168.596 274.807 108.993 276.475 69.8131 252.707C30.4251 228.939 21.047 188.909 35.0099 146.377C49.3897 102.178 89.6112 56.727 145.046 29.2063Z" stroke="white" stroke-width="10.957"/>
<path fill-rule="evenodd" clip-rule="evenodd" d="M273.005 169.728L258.209 184.531L231.95 194.122L188.394 165.142L200.064 196.832H200.273L185.476 211.426L153.591 223.519L108.159 101.969L122.956 87.1664L150.881 76.9504L191.937 103.846L181.1 74.8655L195.688 60.0627L227.365 48.1788L273.005 169.728Z" fill="black"/>
<path fill-rule="evenodd" clip-rule="evenodd" d="M282.592 25.8705C317.395 12.9442 351.781 32.5422 364.285 66.109C371.579 85.4986 370.12 106.348 361.159 122.818C360.742 123.861 360.117 124.903 359.492 125.946C345.112 149.713 330.316 159.512 315.936 164.933C280.091 178.277 245.288 158.261 232.575 124.695C225.489 105.514 226.115 86.7495 234.242 70.2788C240.078 58.3949 252.79 43.3837 269.254 32.5422C273.213 29.8319 277.798 27.5384 282.592 25.8705ZM276.756 78.41C276.756 78.2015 276.965 77.9929 276.965 77.7844C279.257 70.2788 286.76 67.9854 296.138 70.4873C305.724 72.9892 313.018 81.9542 316.978 92.3787C317.811 94.4636 318.437 96.5485 318.853 98.8419C320.729 107.39 319.896 113.436 316.353 116.772C312.185 120.733 304.474 120.942 295.721 117.189C288.427 113.228 282.8 105.931 279.465 97.174C276.965 90.9193 276.131 84.4562 276.756 78.41Z" fill="black"/>
<path fill-rule="evenodd" clip-rule="evenodd" d="M150.881 76.9504L218.612 121.15L195.688 60.0627L227.365 48.1788L273.005 169.728L246.746 179.319L176.306 132.617L200.064 196.832L168.179 208.716L122.956 87.1664L150.881 76.9504Z" fill="black"/>
<path fill-rule="evenodd" clip-rule="evenodd" d="M161.927 114.479L191.103 192.662L172.555 199.542L132.125 91.5447L149.839 84.873L232.783 139.08L204.858 64.2325L223.197 57.3524L263.627 165.559L247.58 171.396L161.927 114.479Z" fill="#F3F3F3"/>
<path fill-rule="evenodd" clip-rule="evenodd" d="M282.591 25.8705C317.395 12.9442 351.781 32.5422 364.285 66.109C376.789 99.6758 363.66 137.204 329.065 150.13C294.262 163.057 259.876 143.459 247.372 109.892C234.659 76.1165 247.788 38.7969 282.591 25.8705ZM294.054 56.5185C276.548 62.9817 273.422 80.9118 279.465 97.174C285.509 113.228 299.472 124.695 317.186 118.231C334.692 111.56 337.818 93.8381 331.774 77.5759C325.522 61.5222 311.559 50.0554 294.054 56.5185Z" fill="black"/>
<path fill-rule="evenodd" clip-rule="evenodd" d="M291.553 49.8468C312.185 42.1327 330.524 54.4336 338.235 75.0741C345.946 95.7145 340.111 116.98 319.479 124.695C298.847 132.409 280.299 120.108 272.588 99.4673C264.877 79.0353 270.921 57.5609 291.553 49.8468ZM285.092 32.5422C315.519 21.0752 346.363 37.9629 357.825 68.6109C369.287 99.2588 356.991 132.2 326.773 143.459C296.346 154.717 265.503 138.038 254.041 107.39C242.37 76.742 254.457 43.8006 285.092 32.5422Z" fill="#F2F2F2"/>
<path fill-rule="evenodd" clip-rule="evenodd" d="M82.5256 248.746C57.5173 250.205 39.8031 234.152 30.0082 207.673L5 140.54L19.5881 125.737L51.4737 113.853L77.1071 182.446C80.4416 191.203 86.4852 198.917 96.6969 199.334C99.6146 199.542 103.574 199.125 104.408 195.373C104.616 190.994 103.783 186.616 102.115 182.446L76.4819 113.853L91.2785 99.0503L122.956 87.1664L148.381 155.134C155.675 174.732 155.675 192.245 147.755 206.423C144.004 213.094 135.043 221.017 127.54 228.522C116.078 240.615 98.7809 247.912 82.5256 248.746Z" fill="black"/>
<path fill-rule="evenodd" clip-rule="evenodd" d="M28.7579 130.115L47.3056 123.235L70.4383 185.157C78.1492 205.589 94.4045 209.758 107.951 204.755C121.497 199.542 131.292 185.782 123.372 165.35L100.24 103.429L118.788 96.5484L141.712 157.844C150.881 182.238 150.881 208.924 115.245 222.893C115.036 222.893 114.828 223.102 114.619 223.102C114.411 223.102 114.203 223.31 113.994 223.31C78.9827 235.82 60.435 215.805 51.0569 190.786L28.7579 130.115Z" fill="white"/>
<path fill-rule="evenodd" clip-rule="evenodd" d="M185.893 75.6995L197.355 64.024L203.816 81.3287L192.353 93.0042L185.893 75.6995ZM194.437 98.8418L205.9 87.1664L208.4 93.6296L196.938 105.305L194.437 98.8418Z" fill="#58585A"/>
<path fill-rule="evenodd" clip-rule="evenodd" d="M81.2751 114.896L92.7372 103.22L99.1977 120.525L87.7356 132.2L81.2751 114.896ZM89.8196 138.038L101.282 126.362L103.783 132.826L92.3205 144.501L89.8196 138.038Z" fill="#58585A"/>
<path fill-rule="evenodd" clip-rule="evenodd" d="M24.173 180.57L35.6351 168.894L42.0956 186.199L30.6334 197.874L24.173 180.57ZM32.9259 203.712L44.388 192.037L44.8048 192.871C45.6384 194.747 46.2636 196.623 47.0972 198.5L35.4267 210.175L32.9259 203.712Z" fill="#58585A"/>
<path fill-rule="evenodd" clip-rule="evenodd" d="M308.225 72.1552L319.895 60.4797C324.063 63.8156 327.606 68.6108 330.107 74.0315L318.645 85.4985C316.144 80.4947 312.601 75.6995 308.225 72.1552ZM321.146 91.1277L332.4 79.6607C333.233 82.1626 333.65 84.456 334.067 86.9579L323.021 98.0079V97.7994C322.605 95.7145 321.979 93.421 321.146 91.1277Z" fill="#58585A"/>
</svg>
